<?xml version="1.0" encoding="UTF-8" standalone="no"?>
<svg version="1.1"
     baseProfile="full"
     xmlns="http://www.w3.org/2000/svg"
     width="100%"
     height="100%"
     viewBox="50 60 320 400"
>
  <!-- 
       this SVG adaption of the Reddit Alien was made by Jonas Reinsch
       with the help of Emacs and Firefox and a bitmap image of the alien.
       Tested with Firefox, Safari and Opera.
  -->
  <title>Fully scalable reddit alien (try resizing the browser window)</title>
  <clipPath id="MyClip">
    <rect x="50" y="60" height="388.2" width="400"/>
  </clipPath>
  <g clip-path="url(#MyClip)" fill="white" stroke="black" stroke-width="8">
    <!-- ears -->
    <g transform="translate(210,185)">
      <circle r="25" cx="-105"/>
      <circle r="25" cx="105"/>
    </g>
    <!-- antenna -->
    <g transform="translate(211.5,113)">
      <path fill="none" d="M0 30L17-27 89-13"/>
      <circle r="21" cx="89" cy="-13"/>
    </g>
    <!-- feet -->
    <path d="M287 444.5
             c5 0 10-30-37-29
             Q180 400 200 444.5z"/>
    <path d="M133 444.5
             c-5 0 -10 -30 37-29
             Q180 400 200 444.5z
             "/>
    <!-- body, arms -->
    <g transform="translate(210,330)">
      <g transform="translate(0,10)">
        <ellipse cx="-44" rx="43" ry="50"/>
        <ellipse cx="44"  rx="43" ry="50"/>
      </g>
      <ellipse rx="57" ry="120"/>
    </g>
    <!-- head -->
    <ellipse cx="210" cy="220" rx="115" ry="76"/>
    <!-- mouth -->
    <path d="M165 253Q210 283 255 253"/>
    <!-- eyes -->
    <g stroke="white" fill="#FF4500" transform="translate(210,206)">
      <circle r="16.2" cx="-40"/>
      <circle r="16.2" cx="40"/>
    </g>
  </g>
</svg>
